# xmcd CD database file
#
# Track frame offsets:
#	150
#	12272
#	24540
#	47912
#	71262
#	84472
#	97747
#	116197
#	134600
#	146055
#	157777
#	175722
#	193662
#	204542
#	215640
#	234120
#	252630
#	269015
#	285430
#	300175
#
# Disc length: 4197 seconds
#
# Revision: 0
# Processed by: cddbd v1.5.2PL0 Copyright (c) Steve Scherf et al.
# Submitted via: CDex 1.51
#
DISCID=17106314
DTITLE=Jazz Improvisation Series - Approaching the Standards
DYEAR=2000
DGENRE=Jazz
TTITLE0=Now's the Time
TTITLE1=Now's the Time - Playback
TTITLE2=Satin Doll
TTITLE3=Satin Doll - Playback
TTITLE4=Softly as in a Mornig Sunrise
TTITLE5=Softly as in a Mornig Sunrise - Playback
TTITLE6=Summertime
TTITLE7=Summertime - Playback
TTITLE8=I Got Rhythm
TTITLE9=I Got Rhythm - Playback
TTITLE10=Honeysuckle Rose
TTITLE11=Honeysuckle Rose - Playback
TTITLE12=Tenor Madness
TTITLE13=Tenor Madness - Playback
TTITLE14=Bye Bye Blackbird
TTITLE15=Bye Bye Blackbird - Playback
TTITLE16=Secret Love
TTITLE17=Secret Love - Playback
TTITLE18=Take the "A" Train
TTITLE19=Take the "A" Train - Playback
EXTD=YEAR: 2000
EXTT0=
EXTT1=
EXTT2=
EXTT3=
EXTT4=
EXTT5=
EXTT6=
EXTT7=
EXTT8=
EXTT9=
EXTT10=
EXTT11=
EXTT12=
EXTT13=
EXTT14=
EXTT15=
EXTT16=
EXTT17=
EXTT18=
EXTT19=
PLAYORDER=
